<svg width="40" height="41" fill="none" xmlns="http://www.w3.org/2000/svg"><path d="M28.36 36.26a.38.38 0 01-.1.258.326.326 0 01-.239.107H4.39a.326.326 0 01-.24-.107.38.38 0 01-.099-.258V10.74a.38.38 0 01.1-.259.326.326 0 01.239-.107h14.536L22.977 6H4.39c-1.164 0-2.28.5-3.103 1.39C.464 8.278 0 9.483 0 10.739v25.52c.001 1.257.464 2.462 1.287 3.351C2.11 40.5 3.226 41 4.39 41h23.63c1.164-.001 2.28-.501 3.103-1.39.823-.889 1.286-2.094 1.287-3.35V20.562l-4.051 4.375V36.26z" fill="#D9D9D9"/><path d="M38.213 1.921C37.073.691 35.528 0 33.916 0c-1.611 0-3.157.691-4.296 1.921L13.862 18.936a2.247 2.247 0 00-.553 1.118l-1.432 7.735c-.06.318-.054.646.018.961.072.316.207.61.397.86.19.252.43.454.701.593a1.9 1.9 0 001.274.17l7.16-1.547a1.984 1.984 0 001.036-.6l15.756-17.014a6.621 6.621 0 001.319-2.132A7.021 7.021 0 0040 6.565a7.02 7.02 0 00-.465-2.514 6.62 6.62 0 00-1.322-2.13zm-2.865 3.094c.189.203.338.444.44.71a2.341 2.341 0 010 1.675 2.208 2.208 0 01-.44.71l-1.085 1.17-2.865-3.093 1.086-1.172c.38-.41.895-.64 1.432-.64.537 0 1.052.23 1.432.64zM20.026 24.657l-3.581.774.717-3.87 11.372-12.28 2.864 3.093-11.372 12.283z" fill="#D9D9D9"/></svg>