<svg width="20" height="18" viewBox="0 0 20 18" fill="none" xmlns="http://www.w3.org/2000/svg">
    <path d="M9.36282 2.42891L9.99303 2.94396L10.6253 2.43146C12.1833 1.16863 13.9071 0.765872 15.4743 1.18365C17.0958 1.61827 18.3771 2.89951 18.8116 4.5222C19.2863 6.29523 18.7036 8.29045 16.9935 10.0005L9.99363 17.0004L2.99374 10.0005C0.194744 7.2015 0.68567 4.05912 2.36842 2.37603C2.36851 2.37595 2.36859 2.37586 2.36867 2.37578C2.36869 2.37576 2.36872 2.37574 2.36874 2.37571C3.28201 1.46343 4.49225 0.983281 5.81098 1.00044C7.00901 1.02959 8.2234 1.4977 9.36282 2.42891Z" stroke="white" stroke-width="2"/>
</svg>
