<svg width="40" height="40" fill="none" xmlns="http://www.w3.org/2000/svg"><circle cx="20" cy="20" r="20" fill="#9A299A"/><path d="M27.458 20.96c-.22 0-.45-.07-.67-.12a9.439 9.439 0 01-1.31-.39 2 2 0 00-2.48 1l-.22.45a12.18 12.18 0 01-2.66-2 12.177 12.177 0 01-2-2.66l.42-.28a2 2 0 001-2.48 10.266 10.266 0 01-.39-1.31c-.05-.22-.09-.45-.12-.68a3 3 0 00-3-2.49h-3a3 3 0 00-3 3.41 19 19 0 0016.52 16.46h.38a3 3 0 002.742-1.777 3 3 0 00.258-1.233v-3a3 3 0 00-2.47-2.9zm.5 6a.999.999 0 01-.723.962 1.06 1.06 0 01-.437.038 17 17 0 01-14.71-14.78 1.09 1.09 0 01.25-.82 1 1 0 01.75-.34h3a1 1 0 011 .79c.04.274.09.544.15.81.116.528.27 1.046.46 1.55l-1.4.65a1.001 1.001 0 00-.49 1.33 14.49 14.49 0 007 7 1 1 0 00.76 0 .999.999 0 00.57-.52l.62-1.4a13.68 13.68 0 001.58.46c.267.06.537.11.81.15a1 1 0 01.79 1l.02 3.12z" fill="#fff"/></svg>