<svg width="109" height="88" fill="none" xmlns="http://www.w3.org/2000/svg"><path d="M.208 29.454c.026.104.104.155.156.259.103.181.181.362.311.518l51.93 56.94c.026.052.103.052.13.104.181.181.389.31.597.44.078.052.155.078.233.13.312.077.623.155.961.155.337 0 .65-.078.935-.207.078-.026.156-.078.233-.13.234-.103.416-.258.598-.44.051-.051.103-.051.13-.103l51.929-56.941a2.08 2.08 0 00.311-.518c.052-.078.13-.155.156-.259.13-.31.182-.62.182-.931v-.026a.753.753 0 00-.052-.233c-.026-.233-.052-.466-.13-.673-.052-.13-.13-.233-.207-.363-.078-.103-.104-.232-.182-.362L87.657.932c-.026-.026-.078-.052-.104-.078-.156-.181-.363-.31-.571-.44a2.16 2.16 0 00-.312-.207c-.026-.026-.052-.052-.078-.052a1.925 1.925 0 00-.752-.13C85.814.053 85.761 0 85.683 0H23.368c-.078 0-.155.052-.233.052-.234.026-.494.026-.727.13-.026 0-.052.05-.078.05-.13.053-.208.13-.312.208-.208.13-.415.259-.571.44-.026.026-.078.052-.104.078L.571 26.84c-.078.104-.13.233-.182.362-.077.13-.155.233-.207.363a2.06 2.06 0 00-.13.673.747.747 0 00-.052.233v.026c0 .336.078.646.208.957zm8.257 1.605h23.472l15.656 42.887L8.465 31.059zm46.061 46.77l-17.059-46.77h34.118l-17.059 46.77zm6.933-3.883l15.656-42.887h23.472L61.459 73.946zM86.437 7.66l14.618 18.221H79.14l7.297-18.22zM81.84 5.176l-7.296 18.222L59.927 5.176H81.84zM69.897 25.882H39.155L54.526 6.73l15.371 19.153zM49.125 5.176L34.507 23.398 27.211 5.176h21.914zm-26.51 2.485l7.296 18.221H7.997l14.618-18.22z" fill="#fff"/></svg>