<svg width="105" height="105" fill="none" xmlns="http://www.w3.org/2000/svg"><path d="M45.103 0c-3.904 0-7.112 3.213-7.112 7.118v2.504a45.07 45.07 0 00-5.8 2.42l-1.79-1.79c-2.76-2.76-7.314-2.76-10.075 0L10.27 20.335c-2.76 2.761-2.76 7.316 0 10.077l1.766 1.753a44.952 44.952 0 00-2.402 5.815H7.112C3.208 37.979 0 41.211 0 45.116v14.231c0 3.905 3.208 7.132 7.112 7.132h2.522a45.122 45.122 0 002.42 5.783l-1.784 1.79c-2.76 2.761-2.76 7.316 0 10.077l10.056 10.076c2.76 2.761 7.314 2.761 10.075 0l1.771-1.771a45.125 45.125 0 005.819 2.402v2.509c0 3.905 3.208 7.113 7.112 7.113h14.248c3.904 0 7.112-3.208 7.112-7.113v-2.509a44.961 44.961 0 005.805-2.416l1.785 1.785c2.76 2.761 7.296 2.761 10.056 0L94.19 84.13c2.76-2.761 2.76-7.316 0-10.077l-1.771-1.771c.931-1.88 1.74-3.81 2.401-5.802h2.504c3.904 0 7.135-3.227 7.135-7.132V45.116c0-3.905-3.231-7.137-7.135-7.137H94.8a45.075 45.075 0 00-2.402-5.783l1.79-1.785v-.019c2.746-2.762 2.756-7.302 0-10.058l-10.08-10.082c-2.76-2.76-7.296-2.76-10.056 0l-1.771 1.772a44.996 44.996 0 00-5.819-2.402V7.118C66.463 3.213 63.255 0 59.351 0H45.103zm0 4.753h14.248c1.356 0 2.364 1.009 2.364 2.365v4.08a2.375 2.375 0 001.72 2.296 40.381 40.381 0 018.272 3.404 2.374 2.374 0 002.819-.403L77.4 13.62c.96-.96 2.407-.96 3.366 0l10.075 10.058c.96.96.96 2.407 0 3.366h-.019l-2.893 2.908a2.375 2.375 0 00-.403 2.824 40.457 40.457 0 013.435 8.254 2.375 2.375 0 002.282 1.702h4.08c1.356 0 2.383 1.027 2.383 2.384v14.231c0 1.357-1.027 2.384-2.383 2.384h-4.08a2.374 2.374 0 00-2.281 1.716 40.451 40.451 0 01-3.417 8.272 2.375 2.375 0 00.403 2.825l2.875 2.87h.019c.959.96.959 2.389 0 3.348L80.767 90.843c-.96.96-2.407.96-3.366 0l-2.907-2.912a2.374 2.374 0 00-2.824-.385 40.296 40.296 0 01-8.234 3.437 2.373 2.373 0 00-1.72 2.276v4.086c0 1.356-1.009 2.365-2.365 2.365H45.103c-1.356 0-2.383-1.009-2.383-2.365V93.24a2.375 2.375 0 00-1.716-2.277 40.217 40.217 0 01-8.252-3.4 2.374 2.374 0 00-2.824.404l-2.888 2.875c-.96.96-2.389.96-3.348 0l-10.08-10.08c-.959-.96-.959-2.39 0-3.349l2.912-2.907a2.375 2.375 0 00.385-2.839 40.328 40.328 0 01-3.436-8.24 2.375 2.375 0 00-2.276-1.697H7.112c-1.356 0-2.364-1.027-2.364-2.384v-14.23c0-1.357 1.008-2.384 2.364-2.384h4.104a2.374 2.374 0 002.276-1.72 40.39 40.39 0 013.398-8.273 2.374 2.374 0 00-.403-2.82l-2.874-2.875c-.96-.959-.96-2.407 0-3.366l10.08-10.058c.958-.96 2.387-.96 3.347 0l2.907 2.893a2.374 2.374 0 002.837.404 40.33 40.33 0 018.239-3.437 2.373 2.373 0 001.697-2.28V7.12c0-1.357 1.027-2.366 2.383-2.366zM52.22 18.98a33.085 33.085 0 00-19.12 6.066l2.735 3.872a28.282 28.282 0 0116.385-5.185c15.76 0 28.49 12.733 28.49 28.496 0 15.764-12.73 28.5-28.49 28.5-15.76 0-28.477-12.736-28.477-28.5a28.342 28.342 0 017.92-19.717l-3.418-3.293a33.158 33.158 0 00-9.25 23.01c0 18.33 14.899 33.23 33.225 33.23s33.243-14.9 33.243-33.23S70.546 18.98 52.22 18.98zm11.818 21.308a2.42 2.42 0 00-.218.024s-8.975 1.24-16.366 4.61c-3.696 1.684-7.187 3.856-8.8 7.396-.807 1.77-.998 3.911-.367 5.996.632 2.085 1.978 4.097 4.048 6.167 2.07 2.07 4.1 3.436 6.185 4.067 2.084.632 4.225.44 5.995-.366 3.54-1.614 5.692-5.12 7.377-8.816 3.368-7.392 4.627-16.374 4.627-16.374a2.376 2.376 0 00-2.48-2.704zm-3.268 5.774c-.5 2.717-.98 6.487-3.19 11.338-1.47 3.224-3.395 5.698-5.045 6.45-.825.376-1.552.465-2.629.14-.667-.203-1.487-.632-2.406-1.309l6.454-6.454-3.366-3.349-6.445 6.446c-.678-.916-1.115-1.732-1.316-2.397-.327-1.077-.237-1.804.139-2.63.752-1.65 3.244-3.576 6.468-5.045 4.85-2.21 8.619-2.691 11.336-3.19z" fill="#fff"/></svg>