<svg width="94" height="95" fill="none" xmlns="http://www.w3.org/2000/svg"><path d="M67.454 22H26.546C24.039 22 22 24.08 22 26.636v41.728C22 70.92 24.039 73 26.546 73h40.908C69.962 73 72 70.92 72 68.364V26.636C72 24.08 69.961 22 67.454 22zM26.546 68.364V26.636h40.908v41.728H26.546z" fill="#fff"/><path d="M91.762 36.19c1.235 0 2.238-1.013 2.238-2.261 0-1.249-1.003-2.262-2.238-2.262h-6.714v-9.048h6.714c1.235 0 2.238-1.013 2.238-2.262 0-1.248-1.003-2.262-2.238-2.262h-6.94c-.893-4.424-4.349-7.916-8.727-8.819V2.262C76.095 1.013 75.093 0 73.857 0c-1.235 0-2.238 1.013-2.238 2.262v6.786h-8.952V2.262C62.667 1.013 61.664 0 60.429 0c-1.236 0-2.239 1.013-2.239 2.262v6.786h-8.952V2.262C49.238 1.013 48.235 0 47 0s-2.238 1.013-2.238 2.262v6.786h-8.953V2.262C35.81 1.013 34.807 0 33.572 0s-2.238 1.013-2.238 2.262v6.786h-8.952V2.262C22.381 1.013 21.378 0 20.143 0c-1.236 0-2.238 1.013-2.238 2.262v7.014c-4.378.903-7.834 4.395-8.727 8.82h-6.94C1.003 18.095 0 19.108 0 20.356c0 1.249 1.003 2.262 2.238 2.262h6.714v9.048H2.238C1.003 31.667 0 32.68 0 33.929c0 1.248 1.003 2.261 2.238 2.261h6.714v9.048H2.238C1.003 45.238 0 46.251 0 47.5s1.003 2.262 2.238 2.262h6.714v9.047H2.238C1.003 58.81 0 59.824 0 61.072c0 1.249 1.003 2.262 2.238 2.262h6.714v9.048H2.238C1.003 72.381 0 73.394 0 74.643c0 1.248 1.003 2.262 2.238 2.262h6.94c.893 4.424 4.349 7.916 8.727 8.819v7.014c0 1.249 1.002 2.262 2.238 2.262 1.235 0 2.238-1.013 2.238-2.262v-6.786h8.952v6.786c0 1.249 1.003 2.262 2.238 2.262 1.236 0 2.239-1.013 2.239-2.262v-6.786h8.952v6.786C44.762 93.987 45.765 95 47 95s2.238-1.013 2.238-2.262v-6.786h8.953v6.786c0 1.249 1.002 2.262 2.238 2.262 1.235 0 2.238-1.013 2.238-2.262v-6.786h8.952v6.786c0 1.249 1.003 2.262 2.238 2.262 1.236 0 2.238-1.013 2.238-2.262v-7.014c4.378-.903 7.834-4.395 8.727-8.82h6.94c1.235 0 2.238-1.013 2.238-2.261 0-1.249-1.003-2.262-2.238-2.262h-6.714v-9.048h6.714c1.235 0 2.238-1.013 2.238-2.262 0-1.248-1.003-2.261-2.238-2.261h-6.714v-9.048h6.714c1.235 0 2.238-1.013 2.238-2.262s-1.003-2.262-2.238-2.262h-6.714v-9.047h6.714zm-11.19 38.453c0 3.741-3.013 6.786-6.715 6.786H20.143c-3.702 0-6.714-3.045-6.714-6.786V20.357c0-3.741 3.012-6.786 6.714-6.786h53.714c3.702 0 6.714 3.045 6.714 6.786v54.286z" fill="#fff"/></svg>