<svg width="81" height="102" fill="none" xmlns="http://www.w3.org/2000/svg"><path d="M27.535 19.079a8.473 8.473 0 10-16.946 0 8.473 8.473 0 0016.946 0zm-8.473 4.236a4.236 4.236 0 110-8.472 4.236 4.236 0 010 8.472z" fill="#fff"/><path d="M80.485 33.693C80.337 9.145 53.65-8.095 30.838 3.913a4.236 4.236 0 00-5.422-.147 4.088 4.088 0 00-4.088-3.75h-4.532a4.088 4.088 0 00-4.088 3.75 4.236 4.236 0 00-5.55.233L3.983 7.197a4.088 4.088 0 00-.233 5.528A4.088 4.088 0 000 16.813v4.532a4.088 4.088 0 003.749 4.088 4.236 4.236 0 00-.974 2.648c0 2.117 1.08 2.774 4.405 6.1a4.236 4.236 0 005.55.232 34.08 34.08 0 002.35 11.946c4.596 11.691 12.264 12.454 14.488 27.407a6.354 6.354 0 00-.382 8.853 6.355 6.355 0 004.702 10.59h2.33a10.59 10.59 0 0020.757 0h2.33a6.354 6.354 0 004.702-10.59 6.354 6.354 0 00-.466-8.874c2.817-18.173 17.05-18.85 16.944-40.052zm-70.403-2.626l-3.008-3.008a4.088 4.088 0 00-2.838-6.862V16.96a4.088 4.088 0 002.838-6.862l3.008-3.008a4.088 4.088 0 006.862-2.838h4.236a4.088 4.088 0 006.863 2.838l3.007 3.007a4.088 4.088 0 002.838 6.863v4.236a4.089 4.089 0 00-2.838 6.862l-3.007 3.008a4.088 4.088 0 00-6.863 2.838h-4.236a4.089 4.089 0 00-6.862-2.838zm30.52 62.143h11.989a6.355 6.355 0 01-11.989 0zm18.703-4.236H33.888a2.118 2.118 0 110-4.237h25.417a2.118 2.118 0 010 4.237zm0-8.473H33.888a2.118 2.118 0 010-4.236h25.417a2.118 2.118 0 010 4.236zM33.888 72.03V46.36l12.709-1.589v27.26H33.888zm16.224-31.24c-.783-.72-1.355-.551-3.516-.276v-8.726h12.709V72.03h-8.472c0-31.982.317-30.35-.72-31.24zm13.429 20.333V29.669a2.118 2.118 0 00-2.118-2.118H44.478a2.118 2.118 0 00-2.118 2.118v11.374l-10.844 1.334a2.118 2.118 0 00-1.864 2.118V60.89c-4.363-7.985-10.59-10.59-12.369-22.748h4.045a4.088 4.088 0 004.088-3.749 4.236 4.236 0 005.55-.233l3.198-3.198a4.088 4.088 0 00.212-5.528 4.089 4.089 0 003.748-4.088v-4.532a4.088 4.088 0 00-3.748-4.088 4.066 4.066 0 00-.382-5.676A29.8 29.8 0 0176.25 33.736a29.483 29.483 0 01-7.35 19.697 42.193 42.193 0 00-5.358 7.689z" fill="#fff"/></svg>