<svg width="90" height="90" fill="none" xmlns="http://www.w3.org/2000/svg"><path d="M78.722.07c-.23.086-.437.223-.605.401l-5.934 5.907v.1c-.036.031-.07.064-.103.099l-4.633 4.507-4.53-4.51a1.61 1.61 0 00-1.31-.5c-.348.064-.665.24-.902.5L44.188 22.995a1.601 1.601 0 00-.44 1.825 1.603 1.603 0 00.943.898 1.619 1.619 0 001.814-.519L61.806 9.982l3.425 3.402-18.427 18.321L23.352 8.48a1.602 1.602 0 00-.406-.5L18.92 3.873c-1.491-1.486-3.556-2.2-5.527-2.2-1.978 0-3.937.71-5.438 2.203L5.135 6.78a7.625 7.625 0 00-2.251 5.406c0 2.027.81 3.972 2.251 5.406l3.927 4.004a1.6 1.6 0 00.303.301c.139.165.31.3.502.397L33.023 45.32 8.356 69.846a1.597 1.597 0 000 2.204l1.109 1.1-4.932 4.804a1.6 1.6 0 00-.365 1.78c.085.198.209.378.365.527l1.307 1.297L0 87.466l2.32 2.303 5.837-5.907 1.407 1.403a1.611 1.611 0 001.787.361 1.61 1.61 0 00.53-.361l4.832-4.908.303.301a1.611 1.611 0 001.784.36c.199-.083.378-.206.529-.36l24.566-24.526 25.569 25.529a1.6 1.6 0 00.203.198l.096.103c.033.034.068.066.103.096a1.592 1.592 0 000 .103h.1c.149.13.32.232.506.3l17.212 5.607a1.62 1.62 0 001.613-.398 1.6 1.6 0 00.4-1.604L84.06 69.247a1.597 1.597 0 00-.2-.503 1.54 1.54 0 000-.096 1.46 1.46 0 000-.102 1.608 1.608 0 00-.103 0 1.644 1.644 0 000-.1 1.559 1.559 0 00-.096 0 1.595 1.595 0 000-.102 1.609 1.609 0 00-.506-.4L57.686 42.516 82.952 17.39c.073-.06.141-.127.203-.199v-.102c.073-.06.141-.127.203-.199l5.637-5.507a1.6 1.6 0 00.362-1.774 1.602 1.602 0 00-.362-.526L80.333.468a1.613 1.613 0 00-1.61-.397zm.503 3.806l6.343 6.305-3.827 3.706L75.5 7.68l3.724-3.803zm-65.837.897c1.144 0 2.333.52 3.222 1.404l3.22 3.103-9.261 9.21-3.222-3.204a4.41 4.41 0 01-1.334-3.154A4.39 4.39 0 017.348 8.98l2.919-2.803c.889-.885 1.978-1.4 3.121-1.4v-.004zm59.793 5.213l6.343 6.304-3.424 3.405-6.34-6.307 3.421-3.402zm-51.14 1.499l22.45 22.424-3.424 3.406L18.62 14.89l3.421-3.405zm45.406 4.203l6.443 6.208-18.523 18.42-6.243-6.208a1.645 1.645 0 00-.097-.1l18.42-18.32zm-51.04 1.403l22.45 22.425-3.624 3.6-22.45-22.424 3.624-3.601zM46.81 36.209l6.34 6.308-35.03 34.739-6.34-6.308L46.81 36.21zm8.556 8.509l24.766 24.629-3.524 3.504-24.667-24.728 3.425-3.405zm-5.638 5.712l24.664 24.724-3.422 3.406-24.765-24.63 3.524-3.501zm32.016 21.92l3.924 11.613-11.678-3.902 7.754-7.71zm-70.27 3.306l2.72 2.701-3.425 3.505-2.819-2.7 3.525-3.506z" fill="#fff"/></svg>