<svg width="22" height="23" fill="none" xmlns="http://www.w3.org/2000/svg"><path d="M21.924 11.792c0 6.066-4.934 11-11 11-5.542 0-10.237-4.139-10.917-9.626a.943.943 0 111.87-.233c.565 4.546 4.454 7.973 9.047 7.973 5.026 0 9.115-4.088 9.115-9.114 0-5.026-4.089-9.115-9.115-9.115a9.05 9.05 0 00-5.632 1.949H6.48a.943.943 0 010 1.886H2.924a.943.943 0 01-.943-.943V2.012a.943.943 0 011.886 0V3.37A10.908 10.908 0 0110.924.792c6.066 0 11 4.934 11 11zM11 5.82a.943.943 0 00-.943.943v.348a2.821 2.821 0 00-2.5 3.09c.15 1.473 1.502 2.534 2.981 2.534h1.09a.944.944 0 010 1.885H9.43a.943.943 0 000 1.886h.627v.314a.943.943 0 001.886 0v-.357c1.28-.2 2.366-1.18 2.499-2.49a2.832 2.832 0 00-2.814-3.124h-1.257a.943.943 0 010-1.886h2.205a.943.943 0 000-1.886h-.633v-.314A.943.943 0 0011 5.82z" fill="url(#prefix__paint0_linear_155_1741)"/><defs><linearGradient id="prefix__paint0_linear_155_1741" x1="10.962" y1=".792" x2="10.962" y2="22.792" gradientUnits="userSpaceOnUse"><stop stop-color="#9A299A"/><stop offset="1" stop-color="#FD9E17"/></linearGradient></defs></svg>