<svg width="30" height="21" fill="none" xmlns="http://www.w3.org/2000/svg"><path d="M22.658 13.235a3.786 3.786 0 00-3.782 3.782 3.786 3.786 0 003.782 3.782 3.786 3.786 0 003.781-3.782 3.786 3.786 0 00-3.781-3.782zm0 5.673a1.893 1.893 0 01-1.891-1.891c0-1.043.848-1.89 1.89-1.89 1.044 0 1.892.847 1.892 1.89s-.848 1.89-1.891 1.89zm-12.92-5.673a3.786 3.786 0 00-3.782 3.782 3.786 3.786 0 003.782 3.782 3.786 3.786 0 003.781-3.782 3.786 3.786 0 00-3.781-3.782zm0 5.673a1.893 1.893 0 01-1.891-1.891c0-1.043.848-1.89 1.89-1.89 1.043 0 1.891.847 1.891 1.89s-.848 1.89-1.89 1.89zM25.204 2.412a.946.946 0 00-.845-.521H19.38v1.89h4.396l2.575 5.12 1.69-.849-2.837-5.64z" fill="url(#prefix__paint0_linear_155_1731)"/><path d="M12.668 16.103h7.153v1.89h-7.153v-1.89zm-5.767 0H3.624a.945.945 0 100 1.89h3.277a.945.945 0 100-1.89zm22.9-5.78L27.942 7.93a.944.944 0 00-.747-.366h-6.87V.945A.945.945 0 0019.38 0H3.624a.945.945 0 100 1.89h14.81v6.618c0 .523.424.946.946.946h7.353l1.376 1.773v4.876h-2.615a.945.945 0 100 1.89h3.56a.945.945 0 00.946-.945v-6.145c0-.21-.07-.414-.198-.58zm-22.963.99H2.49a.945.945 0 100 1.89h4.35a.945.945 0 000-1.89zm2.175-3.718H.945a.945.945 0 100 1.89h8.068a.945.945 0 100-1.89z" fill="url(#prefix__paint1_linear_155_1731)"/><path d="M10.556 3.876H2.49a.945.945 0 100 1.89h8.067a.945.945 0 100-1.89z" fill="url(#prefix__paint2_linear_155_1731)"/><defs><linearGradient id="prefix__paint0_linear_155_1731" x1="16.998" y1="1.891" x2="16.998" y2="20.799" gradientUnits="userSpaceOnUse"><stop stop-color="#9A299A"/><stop offset="1" stop-color="#FD9E17"/></linearGradient><linearGradient id="prefix__paint1_linear_155_1731" x1="15" y1="0" x2="15" y2="17.994" gradientUnits="userSpaceOnUse"><stop stop-color="#9A299A"/><stop offset="1" stop-color="#FD9E17"/></linearGradient><linearGradient id="prefix__paint2_linear_155_1731" x1="6.523" y1="3.876" x2="6.523" y2="5.767" gradientUnits="userSpaceOnUse"><stop stop-color="#9A299A"/><stop offset="1" stop-color="#FD9E17"/></linearGradient></defs></svg>