<svg width="30" height="20" fill="none" xmlns="http://www.w3.org/2000/svg"><path d="M10.316 7.143c-.391 0-.766.15-1.042.418a1.407 1.407 0 00-.432 1.01v2.858c0 .378.155.742.432 1.01.276.268.65.418 1.042.418.39 0 .765-.15 1.042-.418.276-.268.431-.632.431-1.01V8.57c0-.378-.155-.742-.431-1.01a1.497 1.497 0 00-1.042-.418zM28 8.57c.39 0 .766-.15 1.042-.418s.432-.631.432-1.01V1.429c0-.38-.156-.743-.432-1.01A1.498 1.498 0 0028 0H1.474C1.083 0 .708.15.432.418A1.407 1.407 0 000 1.428v5.715c0 .379.155.742.432 1.01.276.268.65.418 1.042.418.39 0 .765.15 1.042.419.276.268.431.631.431 1.01s-.155.742-.431 1.01a1.498 1.498 0 01-1.042.419c-.391 0-.766.15-1.042.418A1.407 1.407 0 000 12.857v5.714c0 .38.155.743.432 1.01.276.268.65.419 1.042.419H28c.39 0 .766-.15 1.042-.418s.432-.632.432-1.01v-5.715c0-.379-.156-.742-.432-1.01A1.498 1.498 0 0028 11.429c-.39 0-.766-.15-1.042-.419a1.407 1.407 0 01-.432-1.01c0-.379.156-.742.432-1.01A1.498 1.498 0 0128 8.57zm-1.474-2.6c-.853.3-1.59.848-2.112 1.57-.52.72-.8 1.579-.8 2.459 0 .88.28 1.739.8 2.46a4.407 4.407 0 002.112 1.569v3.114H11.79c0-.379-.156-.742-.432-1.01a1.497 1.497 0 00-1.042-.419c-.391 0-.766.15-1.042.419a1.407 1.407 0 00-.432 1.01H2.947v-3.114c.854-.3 1.591-.848 2.112-1.57.522-.72.801-1.579.801-2.459 0-.88-.28-1.739-.8-2.46a4.407 4.407 0 00-2.113-1.569V2.857h5.895c0 .379.155.742.432 1.01.276.268.65.419 1.042.419.39 0 .765-.15 1.042-.419.276-.268.431-.631.431-1.01h14.737v3.114z" fill="url(#prefix__paint0_linear_155_1725)"/><defs><linearGradient id="prefix__paint0_linear_155_1725" x1="14.737" y1="0" x2="14.737" y2="20" gradientUnits="userSpaceOnUse"><stop stop-color="#9A299A"/><stop offset="1" stop-color="#FD9E17"/></linearGradient></defs></svg>